<svg xmlns="http://www.w3.org/2000/svg" viewBox="0 0 424 580"><defs><style>.cls-1{fill:none;}.cls-2{fill:#ddeaf2;}</style></defs><title>Fichier 31</title><g id="Calque_2" data-name="Calque 2"><g id="Calque_1-2" data-name="Calque 1"><rect class="cls-1" width="424" height="580" rx="17.47"/><path class="cls-2" d="M75.17,289.88H71.41l-6.29-9.52v9.52H61.36V274.45h3.76L71.41,284v-9.56h3.76Z"/><path class="cls-2" d="M80.23,289.28A5.6,5.6,0,0,1,78,287.09a6.59,6.59,0,0,1-.83-3.34,6.46,6.46,0,0,1,.84-3.33,5.66,5.66,0,0,1,2.29-2.21,7.24,7.24,0,0,1,6.5,0,5.66,5.66,0,0,1,2.29,2.21,6.56,6.56,0,0,1,.83,3.33,6.42,6.42,0,0,1-.84,3.32,5.71,5.71,0,0,1-2.31,2.21,6.82,6.82,0,0,1-3.26.77A6.7,6.7,0,0,1,80.23,289.28ZM85.31,286a3.12,3.12,0,0,0,.76-2.26,3.21,3.21,0,0,0-.74-2.27,2.36,2.36,0,0,0-1.81-.79,2.41,2.41,0,0,0-1.83.78,3.25,3.25,0,0,0-.72,2.28,3.29,3.29,0,0,0,.71,2.26,2.32,2.32,0,0,0,1.8.79A2.45,2.45,0,0,0,85.31,286Z"/><path class="cls-2" d="M110.36,289.88H106.6l-6.29-9.52v9.52H96.55V274.45h3.76L106.6,284v-9.56h3.76Z"/><path class="cls-2" d="M123.13,274.45v3h-6.29v3.25h4.7v2.92h-4.7v6.25h-3.76V274.45Z"/><path class="cls-2" d="M136.21,274.45v3h-4.09v12.42h-3.76V277.46h-4.09v-3Z"/><path class="cls-2" d="M142.14,286.4l-2.44,6.31h-2.4l1.28-6.31Z"/><path class="cls-2" d="M152.82,287h4.93v2.9h-8.69V274.45h3.76Z"/><path class="cls-2" d="M161.89,289.28a5.63,5.63,0,0,1-2.27-2.19,6.59,6.59,0,0,1-.82-3.34,6.46,6.46,0,0,1,.84-3.33,5.58,5.58,0,0,1,2.28-2.21,7.26,7.26,0,0,1,6.51,0,5.64,5.64,0,0,1,2.28,2.21,6.46,6.46,0,0,1,.84,3.33,6.33,6.33,0,0,1-.85,3.32,5.59,5.59,0,0,1-2.31,2.21,6.79,6.79,0,0,1-3.26.77A6.69,6.69,0,0,1,161.89,289.28ZM167,286a3.16,3.16,0,0,0,.75-2.26,3.21,3.21,0,0,0-.73-2.27,2.5,2.5,0,0,0-3.64,0,3.92,3.92,0,0,0,0,4.54,2.29,2.29,0,0,0,1.79.79A2.45,2.45,0,0,0,167,286Z"/><path class="cls-2" d="M173.58,280.4a5.41,5.41,0,0,1,2.18-2.19,6.42,6.42,0,0,1,3.2-.77,6,6,0,0,1,3.85,1.21,5.7,5.7,0,0,1,2,3.4h-4a1.93,1.93,0,0,0-2-1.4,2,2,0,0,0-1.65.8,4.62,4.62,0,0,0,0,4.59,2,2,0,0,0,1.65.8,1.92,1.92,0,0,0,2-1.4h4a5.81,5.81,0,0,1-2,3.38,6,6,0,0,1-3.84,1.23,6.42,6.42,0,0,1-3.2-.77,5.41,5.41,0,0,1-2.18-2.19,7.56,7.56,0,0,1,0-6.69Z"/><path class="cls-2" d="M194.34,289.88l-3.73-5.15v5.15h-3.76V273.61h3.76v9l3.71-5H199l-5.1,6.16,5.14,6.11Z"/><path class="cls-2" d="M216,278.88a5.43,5.43,0,0,1,1.29,3.83v7.17h-3.74v-6.66a2.74,2.74,0,0,0-.63-1.92,2.27,2.27,0,0,0-1.72-.68,2.23,2.23,0,0,0-1.71.68,2.7,2.7,0,0,0-.64,1.92v6.66h-3.76V277.61h3.76v1.63a4,4,0,0,1,1.54-1.29,4.94,4.94,0,0,1,2.17-.47A4.44,4.44,0,0,1,216,278.88Z"/><path class="cls-2" d="M222.25,289.28a5.63,5.63,0,0,1-2.27-2.19,7.15,7.15,0,0,1,0-6.67,5.66,5.66,0,0,1,2.29-2.21,7.24,7.24,0,0,1,6.5,0,5.66,5.66,0,0,1,2.29,2.21,7,7,0,0,1,0,6.65,5.59,5.59,0,0,1-2.31,2.21,6.79,6.79,0,0,1-3.26.77A6.69,6.69,0,0,1,222.25,289.28Zm5.07-3.27a3.12,3.12,0,0,0,.76-2.26,3.21,3.21,0,0,0-.73-2.27,2.5,2.5,0,0,0-3.64,0,3.2,3.2,0,0,0-.73,2.28,3.25,3.25,0,0,0,.72,2.26,2.29,2.29,0,0,0,1.79.79A2.42,2.42,0,0,0,227.32,286Z"/><path class="cls-2" d="M251.51,277.61l-3.32,12.27H244l-1.94-8-2,8H236l-3.34-12.27h3.76l1.74,8.77,2.06-8.77h4l2.09,8.73,1.71-8.73Z"/><path class="cls-2" d="M264.44,286.69v3.19h-1.92a4.7,4.7,0,0,1-3.18-1,4.12,4.12,0,0,1-1.15-3.27v-4.88H256.7v-3.12h1.49v-3H262v3h2.46v3.12H262v4.93a1,1,0,0,0,.27.79,1.29,1.29,0,0,0,.88.24Z"/><path class="cls-2" d="M268.87,289.28a5.63,5.63,0,0,1-2.27-2.19,7.15,7.15,0,0,1,0-6.67,5.66,5.66,0,0,1,2.29-2.21,7.24,7.24,0,0,1,6.5,0,5.66,5.66,0,0,1,2.29,2.21,7,7,0,0,1,0,6.65,5.59,5.59,0,0,1-2.31,2.21,6.79,6.79,0,0,1-3.26.77A6.66,6.66,0,0,1,268.87,289.28Zm5.07-3.27a3.12,3.12,0,0,0,.76-2.26,3.17,3.17,0,0,0-.74-2.27,2.49,2.49,0,0,0-3.63,0,3.2,3.2,0,0,0-.73,2.28,3.25,3.25,0,0,0,.72,2.26,2.29,2.29,0,0,0,1.79.79A2.42,2.42,0,0,0,273.94,286Z"/><path class="cls-2" d="M292.12,278a4.06,4.06,0,0,1,1.51,1.39v-1.74h3.75v12.25a6.84,6.84,0,0,1-.67,3.06,5.06,5.06,0,0,1-2,2.19,6.66,6.66,0,0,1-3.42.81,7.16,7.16,0,0,1-4.42-1.28,4.88,4.88,0,0,1-1.93-3.49h3.71a1.79,1.79,0,0,0,.84,1.11,3.06,3.06,0,0,0,1.63.41,2.53,2.53,0,0,0,1.85-.67,2.88,2.88,0,0,0,.7-2.14v-1.74a4.17,4.17,0,0,1-1.52,1.39,4.59,4.59,0,0,1-2.27.54,5,5,0,0,1-2.74-.78,5.43,5.43,0,0,1-2-2.22,8.14,8.14,0,0,1,0-6.65,5.34,5.34,0,0,1,2-2.19,5,5,0,0,1,2.74-.77A4.74,4.74,0,0,1,292.12,278Zm.73,3.57a2.54,2.54,0,0,0-1.91-.82,2.58,2.58,0,0,0-1.9.8,3.06,3.06,0,0,0-.78,2.21A3.11,3.11,0,0,0,289,286a2.61,2.61,0,0,0,3.81,0,3.54,3.54,0,0,0,0-4.43Z"/><path class="cls-2" d="M311.6,284.65h-8.5a2.55,2.55,0,0,0,.73,1.74,2.25,2.25,0,0,0,1.6.61,2,2,0,0,0,1.95-1.19h4a5.64,5.64,0,0,1-1.11,2.18,5.56,5.56,0,0,1-2,1.51,6.36,6.36,0,0,1-2.7.55,6.51,6.51,0,0,1-3.21-.77,5.46,5.46,0,0,1-2.2-2.19,7.52,7.52,0,0,1,0-6.69,5.37,5.37,0,0,1,2.19-2.19,6.54,6.54,0,0,1,3.23-.77,6.68,6.68,0,0,1,3.17.74,5.36,5.36,0,0,1,2.16,2.14,6.46,6.46,0,0,1,.78,3.23A8.44,8.44,0,0,1,311.6,284.65Zm-3.78-2.09a2,2,0,0,0-.65-1.54,2.43,2.43,0,0,0-1.65-.57,2.38,2.38,0,0,0-1.6.55,2.41,2.41,0,0,0-.8,1.56Z"/><path class="cls-2" d="M320.49,286.69v3.19h-1.92a4.7,4.7,0,0,1-3.18-1,4.12,4.12,0,0,1-1.15-3.27v-4.88h-1.49v-3.12h1.49v-3H318v3h2.46v3.12H318v4.93a1,1,0,0,0,.27.79,1.26,1.26,0,0,0,.87.24Z"/><path class="cls-2" d="M329.57,289.28a5.6,5.6,0,0,1-2.26-2.19,6.59,6.59,0,0,1-.82-3.34,6.46,6.46,0,0,1,.83-3.33,5.66,5.66,0,0,1,2.29-2.21,7.24,7.24,0,0,1,6.5,0,5.66,5.66,0,0,1,2.29,2.21,7,7,0,0,1,0,6.65,5.71,5.71,0,0,1-2.31,2.21,6.79,6.79,0,0,1-3.26.77A6.7,6.7,0,0,1,329.57,289.28Zm5.08-3.27a3.12,3.12,0,0,0,.76-2.26,3.21,3.21,0,0,0-.74-2.27,2.49,2.49,0,0,0-3.63,0,3.2,3.2,0,0,0-.73,2.28A3.29,3.29,0,0,0,331,286a2.32,2.32,0,0,0,1.8.79A2.43,2.43,0,0,0,334.65,286Z"/><path class="cls-2" d="M352.15,278.88a5.47,5.47,0,0,1,1.28,3.83v7.17H349.7v-6.66a2.75,2.75,0,0,0-.64-1.92,2.5,2.5,0,0,0-3.43,0,2.7,2.7,0,0,0-.64,1.92v6.66h-3.76V277.61H345v1.63a4.07,4.07,0,0,1,1.54-1.29,5,5,0,0,1,2.18-.47A4.47,4.47,0,0,1,352.15,278.88Z"/><path class="cls-2" d="M367.54,284.65H359a2.55,2.55,0,0,0,.73,1.74,2.25,2.25,0,0,0,1.6.61,2,2,0,0,0,1.95-1.19h4a5.38,5.38,0,0,1-1.11,2.18,5.45,5.45,0,0,1-2,1.51,6.36,6.36,0,0,1-2.7.55,6.51,6.51,0,0,1-3.21-.77,5.46,5.46,0,0,1-2.2-2.19,7.52,7.52,0,0,1,0-6.69,5.37,5.37,0,0,1,2.19-2.19,6.54,6.54,0,0,1,3.23-.77,6.68,6.68,0,0,1,3.17.74,5.36,5.36,0,0,1,2.16,2.14,6.46,6.46,0,0,1,.78,3.23A8.44,8.44,0,0,1,367.54,284.65Zm-3.78-2.09a1.93,1.93,0,0,0-.66-1.54,2.42,2.42,0,0,0-4,1.54Z"/></g></g></svg>